<svg width="32" height="32" viewBox="0 0 32 32" fill="none" xmlns="http://www.w3.org/2000/svg">
<path d="M5.57006 28C5.26164 27.998 4.96063 27.9052 4.70462 27.7332C4.44861 27.5611 4.24894 27.3175 4.13054 27.0327C4.01214 26.7479 3.98025 26.4345 4.03885 26.1317C4.09746 25.8289 4.24396 25.5501 4.46006 25.33L25.3301 4.46C25.4752 4.31489 25.6474 4.19978 25.837 4.12125C26.0266 4.04272 26.2298 4.0023 26.4351 4.0023C26.6403 4.0023 26.8435 4.04272 27.0331 4.12125C27.2227 4.19978 27.395 4.31489 27.5401 4.46C27.6852 4.60511 27.8003 4.77738 27.8788 4.96698C27.9573 5.15658 27.9978 5.35978 27.9978 5.565C27.9978 5.77022 27.9573 5.97343 27.8788 6.16302C27.8003 6.35262 27.6852 6.52489 27.5401 6.67L6.67006 27.54C6.37877 27.8329 5.98317 27.9984 5.57006 28V28Z" fill="#D65633"/>
<path d="M26.4299 28C26.7383 27.998 27.0393 27.9052 27.2953 27.7332C27.5514 27.5611 27.751 27.3175 27.8694 27.0327C27.9878 26.7479 28.0197 26.4345 27.9611 26.1317C27.9025 25.8289 27.756 25.5501 27.5399 25.33L6.6699 4.46C6.52479 4.31489 6.35252 4.19978 6.16292 4.12125C5.97333 4.04272 5.77012 4.0023 5.5649 4.0023C5.35969 4.0023 5.15648 4.04272 4.96688 4.12125C4.77729 4.19978 4.60501 4.31489 4.4599 4.46C4.31479 4.60511 4.19968 4.77738 4.12115 4.96698C4.04262 5.15658 4.0022 5.35978 4.0022 5.565C4.0022 5.77022 4.04262 5.97343 4.12115 6.16302C4.19968 6.35262 4.31479 6.52489 4.4599 6.67L25.3299 27.54C25.6212 27.8329 26.0168 27.9984 26.4299 28V28Z" fill="#D65633"/>
</svg>
