<svg width="16" height="16" viewBox="0 0 16 16" fill="none" xmlns="http://www.w3.org/2000/svg">
<path d="M13.4999 14.35C13.2747 14.3495 13.0589 14.2595 12.8999 14.1L1.89995 3.10001C1.75594 2.93797 1.67929 2.72704 1.68567 2.51035C1.69205 2.29367 1.78098 2.08761 1.93426 1.93432C2.08755 1.78104 2.29361 1.69211 2.51029 1.68573C2.72698 1.67935 2.93791 1.75601 3.09995 1.90001L14.0999 12.9C14.2184 13.0189 14.299 13.1701 14.3317 13.3348C14.3643 13.4994 14.3474 13.6699 14.2833 13.825C14.2191 13.9801 14.1105 14.1127 13.9711 14.2061C13.8317 14.2995 13.6678 14.3496 13.4999 14.35Z" fill="#D65633"/>
<path d="M2.50002 14.35C2.33221 14.3496 2.16828 14.2995 2.02888 14.2061C1.88948 14.1127 1.78085 13.9801 1.71669 13.825C1.65252 13.6699 1.63569 13.4994 1.66832 13.3348C1.70095 13.1701 1.78157 13.0189 1.90002 12.9L12.9 1.90001C13.0621 1.75601 13.273 1.67935 13.4897 1.68573C13.7064 1.69211 13.9124 1.78104 14.0657 1.93432C14.219 2.08761 14.3079 2.29367 14.3143 2.51035C14.3207 2.72704 14.244 2.93797 14.1 3.10001L3.10002 14.1C2.94104 14.2595 2.72525 14.3495 2.50002 14.35Z" fill="#D65633"/>
</svg>
